<svg width="863" height="412" viewBox="0 0 863 412" fill="none" xmlns="http://www.w3.org/2000/svg">
<path fill-rule="evenodd" clip-rule="evenodd" d="M195.997 10.9742C186.922 16.9862 169.028 28.7792 156.232 37.1812C143.436 45.5832 121.214 60.2192 106.849 69.7072C92.4841 79.1952 80.4531 86.9572 80.1141 86.9562C79.7751 86.9562 79.3631 83.2432 79.2001 78.7062C78.7411 65.9402 80.1061 66.9572 63.4301 66.9572H48.9971L48.9871 87.7072L48.9761 108.457L30.3401 121.957L11.7041 135.457L36.9301 135.724L62.1551 135.992L83.8261 121.629C114.632 101.213 177.679 59.4732 196.229 47.2142C205.856 40.8522 212.454 37.1002 213.229 37.5462C215.138 38.6432 247.157 58.3772 279.997 78.6952C283.022 80.5662 293.597 87.0642 303.497 93.1332C324.902 106.255 343.16 117.531 359.311 127.603L371.125 134.969L447.811 134.713C511.82 134.499 524.001 134.242 521.497 133.155C519.847 132.439 516.697 131.012 514.497 129.984C512.297 128.956 493.622 120.832 472.997 111.931C439.633 97.5322 414.326 86.5672 408.497 83.9842C401.745 80.9922 389.567 75.7462 383.997 73.4302C380.422 71.9432 375.697 69.9132 373.497 68.9182C371.297 67.9232 362.522 64.1162 353.997 60.4582C345.472 56.8002 337.147 53.2092 335.497 52.4772C333.847 51.7462 329.687 49.9752 326.252 48.5422C322.817 47.1082 317.642 44.8442 314.752 43.5102C310.27 41.4402 297.478 35.8972 249.997 15.4502C245.872 13.6742 236.084 9.46116 228.245 6.08916C220.406 2.71616 213.656 -0.0238435 213.245 0.00015647C212.834 0.0231565 205.072 4.96116 195.997 10.9742ZM570.929 21.2222C565.667 24.6512 558.467 29.3102 554.929 31.5742C519.913 53.9862 511.814 59.1962 496.497 69.1602C472.95 84.4772 457.803 93.9572 456.875 93.9572C454.012 93.9572 458.422 96.3342 471.653 101.921C483.718 107.016 486.709 107.933 488.417 107.058C489.561 106.473 497.022 101.743 504.997 96.5472C512.972 91.3512 524.222 84.0662 529.997 80.3572C541.094 73.2302 550.884 66.9022 565.236 57.5792C570.042 54.4572 574.675 51.6342 575.53 51.3062C576.896 50.7822 585.745 55.8931 632.218 84.0501C634.571 85.4761 647.072 93.0782 659.997 100.944C672.922 108.81 691.181 119.906 700.572 125.601L717.646 135.957H766.161C817.925 135.957 851.578 135.123 850.288 133.872C849.853 133.45 845.672 131.444 840.997 129.414C836.322 127.384 830.022 124.599 826.997 123.226C823.972 121.853 816.322 118.485 809.997 115.741C798.18 110.615 781.541 103.289 743.997 86.6791C718.036 75.1931 703.417 68.7802 678.974 58.1532C668.786 53.7232 656.861 48.4382 652.474 46.4082C648.087 44.3782 639.997 40.7912 634.497 38.4372C628.997 36.0832 614.708 29.8372 602.744 24.5572C590.78 19.2772 580.88 14.9642 580.744 14.9722C580.608 14.9802 576.192 17.7932 570.929 21.2222ZM583.997 167.967C552.207 172.356 526.753 190.437 512.62 218.669C499.731 244.418 499.065 280.302 510.989 306.6C523.062 333.227 545.538 350.912 575.022 356.985C588.894 359.842 611.349 359.385 622.997 356.007C637.066 351.927 651.23 343.888 662.766 333.435C671.041 325.937 671.806 324.447 668.941 321.397L666.714 319.026L661.605 323.652C654.464 330.117 641.754 338.184 633.668 341.382C614.152 349.102 591.717 348.673 573.997 340.243C564.44 335.695 551.192 322.837 545.504 312.587C536.741 296.799 532.991 275.35 534.99 252.457C538.269 214.897 554.914 189.889 582.997 180.329C590.755 177.688 612.119 177.7 619.997 180.349C637.993 186.4 649.872 198.581 658.805 220.142C662.191 228.313 662.992 229.496 665.331 229.773L667.997 230.09L667.897 222.773C667.842 218.749 667.279 204.657 666.647 191.457L665.497 167.457L662.833 167.149C660.925 166.928 659.997 167.38 659.566 168.741C658.531 172.002 654.359 175.099 650.26 175.649C647.79 175.98 643.197 175.338 637.912 173.922C614.869 167.751 598.59 165.953 583.997 167.967ZM0.657086 186.707C0.298086 195.37 0.00208481 205.945 8.48061e-05 210.207C-0.00291519 217.758 0.0600884 217.957 2.43809 217.957C5.45009 217.957 5.66709 217.607 8.09309 208.855C10.7031 199.433 14.1031 192.949 18.4191 189.16C24.1171 184.157 30.3231 182.759 49.2761 182.211L66.0561 181.725L65.7761 259.591C65.4551 349.139 66.0651 343.308 56.6501 346.793C53.8161 347.842 48.9091 349.016 45.7471 349.401C40.5181 350.037 39.9971 350.321 39.9971 352.529V354.957H80.4971H120.997V352.555C120.997 350.357 120.475 350.093 114.85 349.44C104.473 348.236 98.8841 345.951 96.5461 341.957C94.5351 338.521 94.4921 337.018 94.2181 260.08L93.9381 181.704L111.218 182.187C136.362 182.891 141.73 185.353 147.794 198.961C149.386 202.534 151.278 207.707 151.998 210.457C153.636 216.714 154.594 217.957 157.776 217.957H160.311L159.654 201.297C159.293 192.134 158.997 181.559 158.997 177.797V170.957H80.1541H1.31009L0.657086 186.707ZM764.747 197.154C761.157 205.571 753.167 224.382 746.99 238.957C701.453 346.403 701.551 346.212 690.441 349.183C686.82 350.152 685.997 350.797 685.997 352.664V354.957H710.997H735.997V352.572C735.997 350.423 735.437 350.118 730.327 349.479C722.869 348.547 718.997 344.994 718.997 339.084C718.997 335.133 722.394 324.85 729.278 307.957L732.743 299.457H766.974H801.206L805.212 308.957C811.623 324.163 815.978 337.168 815.988 341.136C816.002 346.863 814.313 348.024 803.497 349.72C799.448 350.354 798.497 350.879 798.497 352.48C798.497 354.403 799.379 354.464 830.747 354.721L862.997 354.985V352.66C862.997 350.711 862.197 350.13 858.056 349.069C849.524 346.882 847.803 344.357 834.809 314.957C819.871 281.157 792.544 219.173 784.329 200.457C777.24 184.305 776.164 182.426 773.851 182.154C771.414 181.867 770.917 182.686 764.747 197.154ZM168.997 186.819C168.997 188.982 170.069 189.461 177.03 190.402C179.522 190.739 183.037 191.911 184.84 193.008C191.143 196.841 190.997 195.03 190.997 269.405C190.997 329.373 190.816 337.37 189.373 340.975C187.472 345.727 184.567 347.497 175.733 349.285C170.642 350.315 169.497 350.906 169.497 352.502C169.497 354.4 170.524 354.465 204.747 354.72L239.997 354.983V352.47C239.997 350.518 239.486 349.957 237.707 349.957C233.171 349.957 223.451 346.827 221.268 344.663C217.765 341.19 216.997 333.866 216.997 303.913V276.142L222.545 275.8C229.289 275.383 227.279 273.458 251.944 303.957C261.952 316.332 275.391 332.87 281.808 340.707L293.475 354.957H313.736H333.997V352.694C333.997 350.792 333.168 350.233 328.806 349.197C321.052 347.355 316.846 343.848 305.177 329.494C281.815 300.756 272.285 289.085 265.737 281.198C261.39 275.96 259.36 272.792 260.189 272.538C260.908 272.318 264.531 271.418 268.239 270.538C281.717 267.341 293.514 260.426 298.935 252.547C303.521 245.881 305.282 238.249 304.829 226.991C304.489 218.515 304.031 216.469 301.182 210.681C297.179 202.549 290.998 196.819 281.497 192.432C266.948 185.714 266.291 185.642 215.247 185.208C169.506 184.82 168.997 184.837 168.997 186.819ZM340.997 186.89C340.997 188.982 342.101 189.465 349.03 190.402C355.157 191.23 359.771 194.237 361.807 198.729C363.34 202.111 363.497 208.724 363.497 269.957C363.497 335.457 363.438 337.576 361.497 341.457C359.158 346.134 356.272 347.721 347.445 349.184C341.645 350.145 340.997 350.489 340.997 352.605V354.957H410.497C448.722 354.957 479.997 354.744 479.997 354.485C479.997 354.225 482.472 344.906 485.497 333.777C488.522 322.648 490.997 313.185 490.997 312.749C490.997 312.314 489.477 311.957 487.618 311.957C484.785 311.957 484.033 312.456 482.959 315.048C481.382 318.856 475.019 328.565 471.847 332.004C462.523 342.112 447.163 345.518 414.268 344.774C402.217 344.501 394.704 343.915 393.282 343.137C389.349 340.984 388.884 336.376 389.2 302.641L389.497 270.826L415.185 270.922C431.018 270.981 442.144 271.442 444.185 272.124C450.987 274.394 453.42 278.314 457.627 293.774C458.086 295.458 463.534 294.923 463.397 293.207C463.342 292.52 463.229 279.327 463.147 263.891L462.997 235.824L460.32 236.141C457.948 236.421 457.496 237.111 456.346 242.197C454.689 249.524 451.783 255.212 448.645 257.268C444.533 259.962 434.584 260.942 411.247 260.949L388.997 260.957L389.003 231.707C389.006 215.145 389.445 200.883 390.016 198.829C391.329 194.1 392.16 193.955 417.872 193.965C459.73 193.98 465.494 196.247 470.597 214.707C472.198 220.498 472.533 220.957 475.161 220.957H477.997V202.957V184.957H409.497C342.46 184.957 340.997 184.998 340.997 186.89ZM252.497 196.324C266.614 200.073 274.193 207.841 277 221.436C280.243 237.149 273.953 252.309 261.341 259.173C255.565 262.317 240.368 265.537 226.747 266.503L216.997 267.195V233.298C216.997 195.289 216.969 195.45 223.762 194.619C229.869 193.873 247.12 194.897 252.497 196.324ZM772.27 230.207C774.806 236.395 778.202 244.607 779.817 248.457C794.64 283.801 796.305 287.982 795.772 288.515C795.512 288.775 782.223 288.868 766.241 288.722L737.183 288.457L745.158 269.457C749.545 259.007 756.109 243.37 759.745 234.707C763.38 226.044 766.649 218.957 767.007 218.957C767.365 218.957 769.734 224.02 772.27 230.207ZM27.9691 389.424C28.8031 390.428 29.0781 394.053 28.8421 400.925C28.5161 410.407 28.6071 410.959 30.4971 410.959C32.2691 410.958 32.4591 410.404 32.1601 406.101L31.8231 401.244L36.1501 400.663C40.5041 400.079 43.9971 397.247 43.9971 394.301C43.9971 393.512 42.8921 391.762 41.5421 390.412C39.4671 388.336 38.1351 387.957 32.9201 387.957C27.6131 387.957 26.9221 388.162 27.9691 389.424ZM67.8141 388.823C68.8041 389.45 69.0531 392.31 68.8141 400.31L68.4971 410.961L71.4971 410.88C73.1471 410.836 73.9351 410.572 73.2471 410.295C71.7751 409.701 71.4951 399.957 72.9501 399.957C73.4741 399.957 75.8361 402.407 78.2001 405.401C81.1351 409.12 83.2351 410.863 84.8241 410.901C86.9651 410.953 86.7801 410.521 82.5211 405.537L77.8911 400.117L80.6941 398.774C82.9651 397.685 83.4971 396.774 83.4971 393.973C83.4971 391.29 82.9381 390.233 80.9971 389.251C78.2411 387.857 65.6451 387.448 67.8141 388.823ZM116.417 389.102C113.432 390.55 110.997 395.182 110.997 399.411C110.997 409.765 121.443 415.114 129.416 408.842C136.458 403.303 132.974 387.916 124.691 387.972C122.581 387.986 122.592 388.035 124.977 389.241C128.688 391.119 130.136 394.693 129.693 400.876C129.379 405.258 128.785 406.742 126.595 408.626C123.267 411.489 121.04 411.565 117.689 408.929C114.752 406.619 113.507 400.655 114.771 394.957C115.352 392.342 116.427 391.015 119.023 389.709C121.417 388.504 121.875 387.981 120.497 388.026C119.397 388.063 117.561 388.546 116.417 389.102ZM158.887 389.752C159.514 390.924 159.877 395.871 159.738 401.376C159.512 410.372 159.619 410.959 161.497 410.958C163.269 410.958 163.459 410.404 163.16 406.101L162.823 401.244L166.988 400.685C171.828 400.036 174.997 397.571 174.997 394.457C174.997 390.648 171.524 388.585 164.339 388.128C158.007 387.725 157.83 387.777 158.887 389.752ZM198.942 389.391C199.74 390.352 200.028 394.146 199.815 400.893L199.497 410.961L207.747 410.959C212.285 410.958 215.997 410.544 215.997 410.039C215.997 409.534 216.288 408.296 216.644 407.289C217.176 405.784 216.901 405.859 215.106 407.707C213.422 409.439 211.787 409.957 208 409.957H203.08V399.457V388.957H207.839C210.456 388.957 213.137 389.497 213.797 390.157C214.73 391.09 214.997 390.979 214.997 389.657C214.997 388.188 213.823 387.957 206.375 387.957C198.999 387.957 197.924 388.164 198.942 389.391ZM240.814 388.823C241.804 389.45 242.053 392.31 241.814 400.31C241.514 410.401 241.602 410.961 243.497 410.96C245.296 410.96 245.463 410.407 245.154 405.458C244.958 402.299 245.229 399.957 245.792 399.957C246.331 399.957 248.735 402.411 251.134 405.41C254.29 409.353 256.189 410.871 257.997 410.894C259.372 410.912 260.032 410.596 259.463 410.192C258.894 409.788 256.732 407.356 254.659 404.788L250.888 400.118L253.693 398.774C255.965 397.685 256.497 396.774 256.497 393.973C256.497 391.29 255.938 390.233 253.997 389.251C251.241 387.857 238.645 387.448 240.814 388.823ZM281.58 389.6C280.693 391.913 281.943 392.804 283.122 390.699C283.712 389.644 285.285 388.957 287.109 388.957H290.122L289.809 399.959C289.513 410.399 289.599 410.961 291.497 410.961C293.395 410.961 293.481 410.399 293.185 399.959L292.872 388.957H295.876C297.527 388.957 299.157 389.407 299.497 389.957C300.471 391.533 301.998 391.123 301.359 389.457C300.473 387.149 282.471 387.279 281.58 389.6ZM329.547 394.207C333.793 400.01 334.098 400.832 333.809 405.708C333.526 410.478 333.69 410.96 335.6 410.958C337.518 410.957 337.662 410.521 337.229 406.02C336.788 401.431 337.079 400.619 341.342 394.52C345.038 389.233 345.58 387.957 344.13 387.957C343.14 387.957 342.33 388.528 342.33 389.227C342.33 389.925 341.076 392.392 339.542 394.709L336.754 398.922L333.876 394.948C332.292 392.763 330.997 390.295 330.997 389.466C330.997 388.455 330.003 387.957 327.986 387.957H324.974L329.547 394.207ZM400.814 398.604C401.053 406.604 400.804 409.464 399.814 410.091C398.926 410.655 399.403 410.931 401.282 410.942C403.727 410.955 403.941 410.721 403.032 409.023C401.852 406.818 401.606 392.952 402.747 392.966C403.16 392.971 405.244 396.796 407.379 401.466C409.515 406.136 411.622 409.957 412.062 409.957C412.502 409.957 413.153 409.041 413.508 407.922C413.863 406.803 415.696 402.641 417.58 398.672L421.007 391.457L420.752 401.209L420.497 410.961L423.447 410.959C425.741 410.957 426.13 410.69 425.197 409.757C423.679 408.239 423.581 392.603 425.072 389.818C426.039 388.011 425.872 387.842 423.41 388.133C421.027 388.415 420.215 389.522 417.121 396.707C415.167 401.245 413.269 404.957 412.903 404.957C412.537 404.957 410.515 401.132 408.41 396.457C405.42 389.817 404.135 387.957 402.539 387.955C400.591 387.953 400.512 388.442 400.814 398.604ZM461.195 389.621C460.664 390.631 458.763 395.057 456.971 399.457C455.178 403.857 453.326 407.885 452.854 408.407C451.583 409.816 451.814 410.957 453.369 410.957C454.197 410.957 454.995 409.37 455.381 406.957L456.021 402.957H460.974C466.224 402.957 467.997 404.455 467.997 408.891C467.997 410.418 468.638 410.957 470.45 410.957H472.903L467.98 399.821C465.273 393.696 462.855 388.482 462.608 388.235C462.361 387.988 461.725 388.612 461.195 389.621ZM498.797 389.157C499.555 389.915 499.997 393.713 499.997 399.457C499.997 405.201 499.555 408.999 498.797 409.757C497.864 410.69 498.253 410.954 500.547 410.942C502.471 410.932 503.047 410.641 502.204 410.106C501.273 409.516 500.993 406.928 501.204 400.871L501.497 392.457L508.997 401.793L516.497 411.129L516.784 400.851C516.942 395.198 517.56 389.984 518.157 389.265C519.007 388.24 518.63 387.957 516.419 387.957C514.224 387.957 513.864 388.224 514.797 389.157C516.099 390.459 516.511 403.985 515.247 403.917C514.834 403.894 511.633 400.294 508.132 395.917C503.841 390.552 501.087 387.957 499.682 387.957C498.06 387.957 497.864 388.224 498.797 389.157ZM550.009 398.207C547.68 403.845 545.319 409.02 544.763 409.707C544.016 410.631 544.298 410.957 545.843 410.957C547.17 410.957 547.748 410.472 547.425 409.629C547.145 408.899 547.373 407.099 547.931 405.629C548.848 403.22 549.444 402.957 553.997 402.957C558.887 402.957 559.069 403.06 559.733 406.207C560.111 407.995 560.324 409.794 560.208 410.207C560.092 410.62 561.315 410.957 562.927 410.957H565.856L563.57 406.707C562.312 404.37 559.981 399.196 558.39 395.21C556.799 391.225 555.215 387.962 554.871 387.96C554.526 387.958 552.339 392.569 550.009 398.207ZM594.214 389.518C591.405 391.485 588.997 396.073 588.997 399.457C588.997 402.423 591.136 406.997 593.403 408.879C595.959 411.001 602.166 411.967 606.247 410.88C609.837 409.922 609.997 409.698 609.997 405.618C609.997 403.275 610.537 400.817 611.197 400.157C612.13 399.224 611.741 398.957 609.447 398.956C606.505 398.954 606.498 398.969 606.832 404.323C607.156 409.526 607.079 409.708 604.332 410.233C600.38 410.989 595.185 408.581 593.991 405.44C591.484 398.847 593.425 391.544 598.239 389.451C601.302 388.12 601.346 388.033 598.97 387.996C597.579 387.975 595.439 388.659 594.214 389.518ZM603.997 388.592C604.822 388.903 606.532 390.349 607.798 391.807L610.099 394.457L609.798 391.517C609.535 388.944 609.06 388.543 605.997 388.303C604.072 388.152 603.172 388.282 603.997 388.592ZM637.497 399.421V410.957H645.64C652.143 410.957 653.905 410.638 654.39 409.375C655.536 406.388 654.996 405.514 653.406 407.784C652.043 409.729 651.074 410.012 646.656 409.756L641.497 409.457L641.192 404.707C640.898 400.117 640.982 399.954 643.692 399.857C646.497 399.758 646.497 399.758 643.997 399.062C641.809 398.453 641.497 397.812 641.497 393.912V389.457L646.344 389.148C650.074 388.911 651.523 389.256 652.634 390.648C654.01 392.373 654.063 392.364 653.776 390.457C653.508 388.678 652.593 388.425 645.486 388.171L637.497 387.884V399.421ZM680.018 390.511C681.073 393.288 680.751 407.928 679.593 409.802C679.154 410.513 679.575 410.958 680.688 410.959C682.317 410.961 682.477 410.042 682.301 401.709L682.104 392.457L686.285 401.207C688.584 406.02 690.752 409.957 691.102 409.957C691.452 409.957 693.454 406.108 695.55 401.404C697.646 396.699 699.774 392.595 700.28 392.282C700.822 391.947 701.055 395.651 700.848 401.337C700.517 410.408 700.611 410.959 702.497 410.96C704.392 410.961 704.48 410.401 704.18 400.31C703.941 392.31 704.19 389.45 705.18 388.823C706.05 388.271 705.449 387.982 703.405 387.972C700.485 387.958 700.103 388.429 696.526 396.457C694.443 401.132 692.459 404.953 692.118 404.948C691.776 404.943 689.75 401.118 687.615 396.448C684.353 389.314 683.358 387.957 681.389 387.957C679.29 387.957 679.148 388.223 680.018 390.511ZM731.969 389.424C732.803 390.428 733.078 394.061 732.842 400.961L732.497 411.032L740.385 410.744C747.742 410.476 748.335 410.291 749.185 407.986L750.096 405.515L747.732 407.736C745.984 409.378 744.147 409.957 740.683 409.957H735.997V399.457V388.957H740.947C744.607 388.957 746.163 389.413 746.917 390.707C747.827 392.27 747.939 392.216 747.967 390.207C747.996 388.045 747.659 387.957 739.375 387.957C731.911 387.957 730.916 388.154 731.969 389.424ZM773.747 388.619C775.448 389.306 775.492 408.062 773.797 409.757C772.864 410.69 773.241 410.957 775.497 410.957C777.753 410.957 778.13 410.69 777.197 409.757C775.886 408.446 775.471 392.955 776.747 392.959C777.16 392.96 780.647 396.992 784.497 401.918C788.347 406.844 791.834 410.893 792.247 410.915C792.66 410.938 792.997 406.044 792.997 400.04C792.997 392.243 793.354 388.98 794.247 388.619C794.935 388.342 793.922 388.086 791.997 388.051C789.801 388.011 788.98 388.294 789.794 388.81C790.711 389.392 791.004 391.767 790.794 396.911L790.497 404.188L783.71 396.072C778.828 390.236 776.302 387.979 774.71 388.036C773.493 388.079 773.06 388.342 773.747 388.619ZM818.664 388.624C818.297 388.99 817.997 390.115 817.997 391.124C817.997 392.846 818.118 392.836 819.997 390.957C821.097 389.857 823.122 388.957 824.497 388.957C826.994 388.957 826.997 388.97 826.997 398.757C826.997 405.046 826.567 408.987 825.797 409.757C824.864 410.69 825.253 410.957 827.547 410.959L830.497 410.961L830.185 399.959L829.872 388.957H832.363C833.733 388.957 835.561 389.664 836.426 390.528C837.854 391.957 837.997 391.912 837.997 390.028C837.997 388.081 837.438 387.957 828.664 387.957C823.53 387.957 819.03 388.257 818.664 388.624ZM38.0631 389.992C39.3981 390.707 39.9971 392.09 39.9971 394.457C39.9971 398.095 37.9881 399.957 34.0631 399.957C32.2251 399.957 31.9971 399.349 31.9971 394.457C31.9971 389.565 32.2251 388.957 34.0631 388.957C35.1991 388.957 36.9991 389.423 38.0631 389.992ZM78.6681 389.732C79.3121 390.142 80.1321 391.645 80.4901 393.073C81.3241 396.396 78.9021 398.957 74.9261 398.957C72.0781 398.957 71.9971 398.819 71.9971 393.957C71.9971 389.165 72.1121 388.958 74.7471 388.972C76.2601 388.981 78.0241 389.323 78.6681 389.732ZM169.063 389.992C171.738 391.424 171.738 397.49 169.063 398.922C167.999 399.491 166.199 399.957 165.063 399.957C163.225 399.957 162.997 399.349 162.997 394.457C162.997 389.565 163.225 388.957 165.063 388.957C166.199 388.957 167.999 389.423 169.063 389.992ZM252.426 390.528C255.837 393.94 253.159 398.957 247.926 398.957C245.078 398.957 244.997 398.819 244.997 393.957C244.997 389.095 245.078 388.957 247.926 388.957C249.536 388.957 251.561 389.664 252.426 390.528ZM300.997 392.457C300.997 392.732 301.222 392.957 301.497 392.957C301.772 392.957 301.997 392.732 301.997 392.457C301.997 392.182 301.772 391.957 301.497 391.957C301.222 391.957 300.997 392.182 300.997 392.457ZM463.484 396.579C465.606 401.659 465.475 401.957 461.121 401.957H457.245L458.863 397.457C459.753 394.982 460.816 392.957 461.226 392.957C461.635 392.957 462.651 394.587 463.484 396.579ZM556.233 397.457L557.901 401.957H553.949C551.775 401.957 549.997 401.741 549.997 401.477C549.997 400.187 553.3 392.957 553.89 392.957C554.262 392.957 555.316 394.982 556.233 397.457ZM211.663 397.385C211.362 398.17 209.851 398.971 208.306 399.165C205.782 399.481 205.877 399.57 209.247 400.036C212.644 400.506 212.997 400.339 212.997 398.256C212.997 395.639 212.466 395.293 211.663 397.385ZM649.556 397.524C647.634 398.943 647.634 398.971 649.556 400.39C651.241 401.634 651.54 401.634 651.82 400.39C651.998 399.602 651.998 398.312 651.82 397.524C651.54 396.28 651.241 396.28 649.556 397.524ZM744.803 397.038C744.605 397.632 742.88 398.486 740.97 398.935L737.497 399.752L741.164 399.855C743.18 399.911 745.057 400.52 745.335 401.207C745.612 401.895 745.875 400.995 745.918 399.207C745.997 395.97 745.489 394.982 744.803 397.038Z" fill="black"/>
</svg>
